#N canvas 1215 79 702 607 10;
#X obj 82 344 s \$0-to-SPIN;
#X obj 62 262 thisdir;
#X obj 19 7 widget-spinConnectLite \$0;
#X obj 47 112 bng 15 250 50 0 empty empty empty 17 7 0 10 -262144 -1
-1;
#X obj 94 178 thisdir;
#X msg 110 155 createNode cow ModelNode;
#X obj 343 143 vradio 15 1 0 5 empty empty Subdiv 0 -8 0 10 -262144
-1 -1 1;
#X obj 78 222 thisdir;
#X obj 47 134 t b b b b b;
#X obj 343 331 s \$0-to-SPIN;
#X obj 385 127 vsl 15 90 180 360 0 0 empty empty empty 0 -9 0 10 -262144
-1 -1 0 1;
#X floatatom 385 109 5 0 0 2 FOV - -;
#X obj 42 358 bng 15 250 50 0 empty empty empty 17 7 0 10 -262144 -1
-1;
#X obj 42 377 thisdir;
#X msg 42 399 \$1/ppu;
#X obj 42 421 pack s;
#X msg 42 443 setParam shader \$1;
#X obj 99 399 loadbang;
#X obj 99 421 hostname -s;
#X obj 42 465 OSCprepend;
#X obj 42 487 s \$0-to-SPIN;
#X msg 78 243 createStateSet sh Shader;
#X msg 63 281 /sh setShader \$1/dome.jxs;
#X msg 47 307 /cow setStateSet sh;
#X msg 203 327 /sh debug;
#X msg 343 222 /sh setUniform_int vLevel \$1;
#X msg 385 244 /sh setUniform_float vFOV \$1;
#X msg 94 199 /cow setModelFromFile \$1/monkey.obj;
#X obj 424 127 vsl 15 90 0.065 0.5 0 0 empty empty empty 0 -9 0 10
-262144 -1 -1 0 1;
#X floatatom 424 109 5 0 0 2 Baseline - -;
#X msg 424 267 /sh setUniform_float vBaseline \$1;
#X obj 449 189 vradio 15 1 0 2 empty empty empty 0 -8 0 10 -262144
-1 -1 1;
#X msg 449 288 /sh setUniform_int vStereo \$1;
#X obj 473 127 vsl 15 90 10 10000 1 0 empty empty empty 0 -9 0 10 -262144
-1 -1 8900 1;
#X floatatom 473 109 5 0 0 2 ZFar - -;
#X msg 473 308 /sh setUniform_float vZFar \$1;
#X msg 255 399 createNode light1 LightSource \, /light1 setDiffuse
0.5 0.5 0.5 \, /light1 setTranslation 10 10 20;
#X msg 255 434 createNode light2 LightSource \, /light2 setDiffuse
0.5 0.5 0.5 \, /light2 setTranslation -10 -10 20;
#X msg 255 469 createNode light3 LightSource \, /light3 setDiffuse
0.5 0.5 0.5 \, /light3 setTranslation 10 -10 20;
#X msg 255 508 createNode light4 LightSource \, /light4 setDiffuse
0.5 0.5 0.5 \, /light4 setTranslation -10 10 20;
#X obj 255 379 bng 15 250 50 0 empty empty empty 17 7 0 10 -262144
-1 -1;
#X obj 231 547 s \$0-to-SPIN;
#X connect 1 0 22 0;
#X connect 3 0 8 0;
#X connect 4 0 27 0;
#X connect 5 0 0 0;
#X connect 6 0 25 0;
#X connect 7 0 21 0;
#X connect 8 0 23 0;
#X connect 8 1 1 0;
#X connect 8 2 7 0;
#X connect 8 3 4 0;
#X connect 8 4 5 0;
#X connect 10 0 11 0;
#X connect 10 0 26 0;
#X connect 12 0 13 0;
#X connect 13 0 14 0;
#X connect 14 0 15 0;
#X connect 15 0 16 0;
#X connect 16 0 19 0;
#X connect 17 0 18 0;
#X connect 18 0 19 1;
#X connect 19 0 20 0;
#X connect 21 0 0 0;
#X connect 22 0 0 0;
#X connect 23 0 0 0;
#X connect 24 0 0 0;
#X connect 25 0 9 0;
#X connect 26 0 9 0;
#X connect 27 0 0 0;
#X connect 28 0 29 0;
#X connect 28 0 30 0;
#X connect 30 0 9 0;
#X connect 31 0 32 0;
#X connect 32 0 9 0;
#X connect 33 0 34 0;
#X connect 33 0 35 0;
#X connect 35 0 9 0;
#X connect 36 0 41 0;
#X connect 37 0 41 0;
#X connect 38 0 41 0;
#X connect 39 0 41 0;
#X connect 40 0 36 0;
#X connect 40 0 37 0;
#X connect 40 0 38 0;
#X connect 40 0 39 0;
