#N canvas 1923 55 702 514 10;
#X obj 82 344 s \$0-to-SPIN;
#X obj 35 428 subwidget-PAT \$0;
#X obj 34 384 loadbang;
#X obj 62 262 thisdir;
#X obj 19 7 widget-spinConnectLite \$0;
#X msg 34 405 plane;
#X obj 47 112 bng 15 250 50 0 empty empty empty 17 7 0 10 -262144 -1
-1;
#X obj 94 178 thisdir;
#X msg 114 385 cow;
#X msg 94 199 /cow setModelFromFile \$1/cow.osg;
#X msg 110 155 createNode cow ModelNode;
#X obj 360 349 vradio 15 1 0 5 empty empty empty 0 -8 0 10 -262144
-1 -1 1;
#X obj 78 222 thisdir;
#X msg 47 307 /cow setStateSet img;
#X msg 63 281 /img setShader \$1/dome.jxs;
#X msg 203 327 /img debug;
#X msg 360 428 /img setUniform_int vLevel \$1;
#X msg 78 243 createStateSet img ImageTexture \, /img setPath \$1/cow.jpg
;
#X obj 47 134 t b b b b b;
#X obj 360 476 s \$0-to-SPIN;
#X msg 382 450 /img setUniform_float vFOV \$1;
#X obj 382 333 vsl 15 90 180 360 0 0 empty empty empty 0 -9 0 10 -262144
-1 -1 2500 1;
#X floatatom 382 316 5 0 0 0 - - -;
#X obj 456 116 bng 15 250 50 0 empty empty empty 17 7 0 10 -262144
-1 -1;
#X obj 456 135 thisdir;
#X msg 456 157 \$1/ppu;
#X obj 456 179 pack s;
#X msg 456 201 setParam shader \$1;
#X obj 513 157 loadbang;
#X obj 513 179 hostname -s;
#X obj 456 223 OSCprepend;
#X obj 456 245 s \$0-to-SPIN;
#X connect 2 0 5 0;
#X connect 3 0 14 0;
#X connect 5 0 1 0;
#X connect 6 0 18 0;
#X connect 7 0 9 0;
#X connect 8 0 1 0;
#X connect 9 0 0 0;
#X connect 10 0 0 0;
#X connect 11 0 16 0;
#X connect 12 0 17 0;
#X connect 13 0 0 0;
#X connect 14 0 0 0;
#X connect 15 0 0 0;
#X connect 16 0 19 0;
#X connect 17 0 0 0;
#X connect 18 0 13 0;
#X connect 18 1 3 0;
#X connect 18 2 12 0;
#X connect 18 3 7 0;
#X connect 18 4 10 0;
#X connect 20 0 19 0;
#X connect 21 0 22 0;
#X connect 21 0 20 0;
#X connect 23 0 24 0;
#X connect 24 0 25 0;
#X connect 25 0 26 0;
#X connect 26 0 27 0;
#X connect 27 0 30 0;
#X connect 28 0 29 0;
#X connect 29 0 30 1;
#X connect 30 0 31 0;
