#N canvas 2006 167 1510 607 10;
#X obj 74 311 s \$0-to-SPIN;
#X obj 54 229 thisdir;
#X obj 11 -26 widget-spinConnectLite \$0;
#X obj 39 68 bng 15 250 50 0 empty empty empty 17 7 0 10 -262144 -1
-1;
#X obj 86 134 thisdir;
#X msg 102 111 createNode cow ModelNode;
#X obj 421 34 vradio 15 1 0 5 empty empty Subdiv 0 -8 0 10 -262144
-1 -1 1;
#X obj 70 189 thisdir;
#X obj 39 90 t b b b b b;
#X obj 421 222 s \$0-to-SPIN;
#X obj 463 18 vsl 15 90 180 360 0 0 empty empty empty 0 -9 0 10 -262144
-1 -1 0 1;
#X floatatom 463 0 5 0 0 2 FOV - -;
#X obj 34 325 bng 15 250 50 0 empty empty empty 17 7 0 10 -262144 -1
-1;
#X obj 34 344 thisdir;
#X msg 34 366 \$1/ppu;
#X obj 34 388 pack s;
#X msg 34 410 setParam shader \$1;
#X obj 91 366 loadbang;
#X obj 91 388 hostname -s;
#X obj 34 432 OSCprepend;
#X obj 34 454 s \$0-to-SPIN;
#X msg 70 210 createStateSet sh Shader;
#X msg 55 248 /sh setShader \$1/dome.jxs;
#X msg 39 274 /cow setStateSet sh;
#X msg 195 294 /sh debug;
#X msg 421 113 /sh setUniform_int vLevel \$1;
#X msg 463 135 /sh setUniform_float vFOV \$1;
#X obj 502 18 vsl 15 90 0.065 0.5 0 0 empty empty empty 0 -9 0 10 -262144
-1 -1 0 1;
#X floatatom 502 0 5 0 0 2 Baseline - -;
#X msg 502 158 /sh setUniform_float vBaseline \$1;
#X obj 578 80 vradio 15 1 0 2 empty empty empty 0 -8 0 10 -262144 -1
-1 1;
#X msg 578 199 /sh setUniform_int vStereo \$1;
#X obj 602 18 vsl 15 90 10 10000 1 0 empty empty empty 0 -9 0 10 -262144
-1 -1 8900 1;
#X floatatom 602 0 5 0 0 2 ZFar - -;
#X msg 602 219 /sh setUniform_float vZFar \$1;
#X msg 247 401 createNode light2 LightSource \, /light2 setDiffuse
0.5 0.5 0.5 \, /light2 setTranslation -10 -10 20;
#X msg 247 475 createNode light4 LightSource \, /light4 setDiffuse
0.5 0.5 0.5 \, /light4 setTranslation -10 10 20;
#X obj 247 346 bng 15 250 50 0 empty empty empty 17 7 0 10 -262144
-1 -1;
#X obj 223 514 s \$0-to-SPIN;
#X msg 247 436 createNode light3 LightSource \, /light3 setDiffuse
0.5 0.5 0.5 \, /light3 setTranslation 10 -10 20;
#X msg 247 366 createNode light1 LightSource \, /light1 setDiffuse
0.5 0.5 0.5 \, /light1 setTranslation 10 10 -20;
#X obj 827 148 until;
#X obj 827 172 f;
#X obj 852 172 + 1;
#X msg 868 148 0;
#X obj 827 194 t b a;
#X obj 827 261 until;
#X obj 827 283 f;
#X obj 854 283 + 1;
#X msg 875 261 0;
#X obj 827 306 pack f f;
#X obj 827 238 t a b;
#X obj 827 353 qlist;
#X obj 984 140 r creation;
#X msg 912 235 rewind;
#X msg 913 197 clear;
#X obj 984 187 unpack f f;
#X obj 1074 187 random 100;
#X obj 1074 209 / 100;
#X obj 984 163 t a b b b b;
#X obj 1147 186 random 100;
#X obj 984 271 pack f f f f f f;
#X obj 1147 207 / 10;
#X obj 984 233 -;
#X obj 808 125 t b b a b b a;
#X obj 1041 233 -;
#X obj 837 452 print;
#X msg 837 430 World loaded!;
#X obj 984 209 * 4;
#X obj 1041 209 * 4;
#X obj 1074 234 - 6;
#X obj 932 142 * 2;
#X msg 808 102 25;
#X msg 827 216 25;
#X obj 808 59 bng 15 250 50 0 empty empty empty 17 7 0 10 -262144 -1
-1;
#X obj 854 375 delay 500;
#X msg 971 413 /ground_cube* setScale 4 4 4 \, /ground_cube* setColor
1 1 1 1 \, /ground_cube* setCollisionMode 2 \, /ground_cube* setDynamic
1 \, /ground_cube* setMass 0 \, /ground_cube* setFriction 1.5;
#X obj 808 79 t b b b;
#X obj 854 396 t b b b;
#X msg 873 507 setReliableBroadcast 0;
#X msg 827 329 add 10 creation \$1 \$2;
#X obj 829 58 r _world;
#X msg 984 297 createNode ground_cube_\$1_\$2 CollisionShape \, /ground_cube_\$1_\$2
setTranslation \$1 \$2 \$3 \, /ground_cube_\$1_\$2 setStateSet sh;
#X obj 984 482 s \$0-to-SPIN;
#X msg 916 53 setReliableBroadcast 1;
#X obj 916 70 s \$0-to-SPIN;
#X msg 86 155 /cow setModelFromFile \$1/monkey.obj \, /cow setOrientation
0 0 40;
#X obj 554 17 vsl 15 90 2 200 1 0 empty empty empty 0 -9 0 10 -262144
-1 -1 3200 1;
#X floatatom 554 -1 5 0 0 2 Radius - -;
#X msg 555 179 /sh setUniform_float vRadius \$1;
#X connect 1 0 22 0;
#X connect 3 0 8 0;
#X connect 4 0 86 0;
#X connect 5 0 0 0;
#X connect 6 0 25 0;
#X connect 7 0 21 0;
#X connect 8 0 23 0;
#X connect 8 1 1 0;
#X connect 8 2 7 0;
#X connect 8 3 4 0;
#X connect 8 4 5 0;
#X connect 10 0 11 0;
#X connect 10 0 26 0;
#X connect 12 0 13 0;
#X connect 13 0 14 0;
#X connect 14 0 15 0;
#X connect 15 0 16 0;
#X connect 16 0 19 0;
#X connect 17 0 18 0;
#X connect 18 0 19 1;
#X connect 19 0 20 0;
#X connect 21 0 0 0;
#X connect 22 0 0 0;
#X connect 23 0 0 0;
#X connect 24 0 0 0;
#X connect 25 0 9 0;
#X connect 26 0 9 0;
#X connect 27 0 28 0;
#X connect 27 0 29 0;
#X connect 29 0 9 0;
#X connect 30 0 31 0;
#X connect 31 0 9 0;
#X connect 32 0 33 0;
#X connect 32 0 34 0;
#X connect 34 0 9 0;
#X connect 35 0 38 0;
#X connect 36 0 38 0;
#X connect 37 0 40 0;
#X connect 37 0 35 0;
#X connect 37 0 39 0;
#X connect 37 0 36 0;
#X connect 39 0 38 0;
#X connect 40 0 38 0;
#X connect 41 0 42 0;
#X connect 42 0 43 0;
#X connect 42 0 45 0;
#X connect 43 0 42 1;
#X connect 44 0 42 1;
#X connect 45 0 73 0;
#X connect 45 1 50 1;
#X connect 46 0 47 0;
#X connect 47 0 48 0;
#X connect 47 0 50 0;
#X connect 48 0 47 1;
#X connect 49 0 47 1;
#X connect 50 0 80 0;
#X connect 51 0 46 0;
#X connect 51 1 49 0;
#X connect 52 1 75 0;
#X connect 53 0 59 0;
#X connect 54 0 52 0;
#X connect 55 0 52 0;
#X connect 56 0 68 0;
#X connect 56 1 69 0;
#X connect 57 0 58 0;
#X connect 58 0 70 0;
#X connect 59 0 56 0;
#X connect 59 1 57 0;
#X connect 59 2 60 0;
#X connect 60 0 62 0;
#X connect 61 0 82 0;
#X connect 62 0 61 3;
#X connect 63 0 61 0;
#X connect 64 0 52 0;
#X connect 64 1 54 0;
#X connect 64 2 41 0;
#X connect 64 3 44 0;
#X connect 64 4 55 0;
#X connect 64 5 71 0;
#X connect 65 0 61 1;
#X connect 67 0 66 0;
#X connect 68 0 63 0;
#X connect 69 0 65 0;
#X connect 70 0 61 2;
#X connect 71 0 65 1;
#X connect 71 0 63 1;
#X connect 72 0 64 0;
#X connect 73 0 51 0;
#X connect 74 0 77 0;
#X connect 75 0 78 0;
#X connect 76 0 83 0;
#X connect 77 0 72 0;
#X connect 77 2 84 0;
#X connect 78 0 67 0;
#X connect 78 1 79 0;
#X connect 78 2 76 0;
#X connect 79 0 83 0;
#X connect 80 0 52 0;
#X connect 81 0 77 0;
#X connect 82 0 83 0;
#X connect 84 0 85 0;
#X connect 86 0 0 0;
#X connect 87 0 88 0;
#X connect 87 0 89 0;
#X connect 89 0 9 0;
